# xmcd
#
# Track frame offsets:
#	150
#	13149
#	28007
#	43429
#	59664
#	72142
#	83298
#	103649
#	114930
#	131381
#	145475
#	158034
#	173429
#	183753
#	197294
#	208387
#	221089
#	232959
#
# Disc length: 3273 seconds
#
# Revision: 2
# Processed by: cddbd v1.4PL0 Copyright (c) Steve Scherf et al.
# Submitted via: audiograbber 1.81.03
#
DISCID=f50cc712
DTITLE=Golden Gate Quartett - Spirit Of Black Gospel
DYEAR=2001
DGENRE=Gospel
TTITLE0=Ezekiel (Saw The Wheel)
TTITLE1=Lord Of My Heart
TTITLE2=Put Your Hands In The Hand
TTITLE3=Swing Low Sweet Chariot (Live)
TTITLE4=When The Saints Go Marching In
TTITLE5=Mamie Blue
TTITLE6=Deep River
TTITLE7=St.Louis Blues
TTITLE8=Summertime
TTITLE9=On The Sunny Side Of The Street
TTITLE10=Margie
TTITLE11=If I Had A Hammer
TTITLE12=Alexander's Ragtime Band
TTITLE13=My Lord's Waiting All The Time
TTITLE14=Just A Closer Walk With Thee
TTITLE15=He's Got The Whole World In His Hands
TTITLE16=Poor Little Jesus
TTITLE17=Amen
EXTD=
EXTT0=
EXTT1=
EXTT2=
EXTT3=
EXTT4=
EXTT5=
EXTT6=
EXTT7=
EXTT8=
EXTT9=
EXTT10=
EXTT11=
EXTT12=
EXTT13=
EXTT14=
EXTT15=
EXTT16=
EXTT17=
PLAYORDER=
